<svg xmlns="http://www.w3.org/2000/svg" viewBox="0 0 400 250">
  <style>.m{font-family:ui-monospace,'SF Mono',Menlo,Consolas,monospace}</style>
  <rect width="400" height="250" rx="10" fill="#ffffff"/>
  <defs>
    <linearGradient id="hue" x1="0" y1="0" x2="1" y2="0">
      <stop offset="0" stop-color="#ff0000"/><stop offset=".17" stop-color="#ffff00"/><stop offset=".33" stop-color="#00ff00"/><stop offset=".5" stop-color="#00ffff"/><stop offset=".67" stop-color="#0000ff"/><stop offset=".83" stop-color="#ff00ff"/><stop offset="1" stop-color="#ff0000"/>
    </linearGradient>
  </defs>
  <!-- swatch + hex input -->
  <rect x="48" y="46" width="56" height="56" rx="8" fill="#4b5cc4"/>
  <rect x="120" y="52" width="232" height="44" rx="6" fill="#ffffff" stroke="#d9d9d9" stroke-width="1.5"/>
  <text x="136" y="79" class="m" font-size="14" fill="#262626">#4B5CC4</text>
  <!-- presets -->
  <g>
    <rect x="48" y="128" width="30" height="30" rx="5" fill="#ff4d4f"/>
    <rect x="87" y="128" width="30" height="30" rx="5" fill="#fa8c16"/>
    <rect x="126" y="128" width="30" height="30" rx="5" fill="#fadb14"/>
    <rect x="165" y="128" width="30" height="30" rx="5" fill="#52c41a"/>
    <rect x="204" y="128" width="30" height="30" rx="5" fill="#13c2c2"/>
    <rect x="243" y="128" width="30" height="30" rx="5" fill="#1677ff"/>
    <rect x="282" y="128" width="30" height="30" rx="5" fill="#4b5cc4" stroke="#262626" stroke-width="2"/>
    <rect x="321" y="128" width="30" height="30" rx="5" fill="#722ed1"/>
  </g>
  <!-- hue bar -->
  <rect x="48" y="182" width="304" height="14" rx="7" fill="url(#hue)"/>
  <circle cx="248" cy="189" r="10" fill="#ffffff" stroke="#262626" stroke-width="1.8"/>
</svg>
