<svg xmlns="http://www.w3.org/2000/svg" viewBox="0 0 400 250">
  <style>.s{font-family:-apple-system,'Segoe UI',Roboto,'Helvetica Neue',Arial,sans-serif}.m{font-family:ui-monospace,'SF Mono',Menlo,Consolas,monospace}</style>
  <rect width="400" height="250" rx="10" fill="#ffffff"/>
  <rect x="40" y="26" width="320" height="42" rx="6" fill="#ffffff" stroke="#4b5cc4" stroke-width="1.5"/>
  <text x="56" y="52" class="m" font-size="14" fill="#262626">2026-07-20</text>
  <!-- calendar glyph -->
  <g stroke="#8c959f" stroke-width="1.5" fill="none">
    <rect x="326" y="37" width="20" height="20" rx="3"/>
    <line x1="326" y1="43" x2="346" y2="43"/>
    <line x1="331" y1="33" x2="331" y2="39"/>
    <line x1="341" y1="33" x2="341" y2="39"/>
  </g>
  <!-- dropdown panel -->
  <rect x="40" y="78" width="320" height="150" rx="8" fill="#ffffff" stroke="#d9d9d9" stroke-width="1.5"/>
  <text x="200" y="102" text-anchor="middle" class="s" font-size="13" fill="#262626" font-weight="600">Jul 2026</text>
  <path d="M66,91 l-7,7 l7,7" fill="none" stroke="#8c959f" stroke-width="1.5" stroke-linecap="round" stroke-linejoin="round"/>
  <path d="M334,91 l7,7 l-7,7" fill="none" stroke="#8c959f" stroke-width="1.5" stroke-linecap="round" stroke-linejoin="round"/>
  <line x1="40" y1="112" x2="360" y2="112" stroke="#f0f0f0" stroke-width="1.5"/>
  <g class="s" font-size="10" fill="#8c959f" text-anchor="middle">
    <text x="66" y="130">S</text><text x="111" y="130">M</text><text x="156" y="130">T</text><text x="200" y="130">W</text><text x="245" y="130">T</text><text x="290" y="130">F</text><text x="334" y="130">S</text>
  </g>
  <g class="s" font-size="11" fill="#595959" text-anchor="middle">
    <text x="66" y="160">12</text><text x="111" y="160">13</text><text x="156" y="160">14</text><text x="200" y="160">15</text><text x="245" y="160">16</text><text x="290" y="160">17</text><text x="334" y="160">18</text>
    <text x="66" y="192">19</text><text x="156" y="192">21</text><text x="200" y="192">22</text><text x="245" y="192">23</text><text x="290" y="192">24</text><text x="334" y="192">25</text>
  </g>
  <circle cx="111" cy="188" r="13" fill="#4b5cc4"/>
  <text x="111" y="192" text-anchor="middle" class="s" font-size="11" fill="#ffffff">20</text>
</svg>
