<svg xmlns="http://www.w3.org/2000/svg" viewBox="0 0 400 250">
  <style>.s{font-family:-apple-system,'Segoe UI',Roboto,'Helvetica Neue',Arial,sans-serif}</style>
  <rect width="400" height="250" rx="10" fill="#ffffff"/>
  <!-- group 1 : expanded -->
  <path d="M44,50 l6,4.5 l-6,4.5 z" fill="#4b5cc4" transform="rotate(90 47 54.5)"/>
  <text x="60" y="60" class="s" font-size="14" font-weight="600" fill="#262626">Basic Info</text>
  <line x1="138" y1="55" x2="360" y2="55" stroke="#f0f0f0" stroke-width="1.5"/>
  <rect x="40" y="78" width="152" height="36" rx="5" fill="#ffffff" stroke="#d9d9d9" stroke-width="1.4"/>
  <rect x="52" y="92" width="80" height="8" rx="4" fill="#e8e8e8"/>
  <rect x="208" y="78" width="152" height="36" rx="5" fill="#ffffff" stroke="#d9d9d9" stroke-width="1.4"/>
  <rect x="220" y="92" width="64" height="8" rx="4" fill="#e8e8e8"/>
  <rect x="40" y="126" width="320" height="36" rx="5" fill="#ffffff" stroke="#d9d9d9" stroke-width="1.4"/>
  <rect x="52" y="140" width="140" height="8" rx="4" fill="#e8e8e8"/>
  <!-- group 2 : collapsed -->
  <path d="M44,192 l6,4.5 l-6,4.5 z" fill="#8c959f"/>
  <text x="60" y="202" class="s" font-size="14" font-weight="600" fill="#595959">Advanced Settings</text>
  <line x1="196" y1="197" x2="360" y2="197" stroke="#f0f0f0" stroke-width="1.5"/>
</svg>
