<svg xmlns="http://www.w3.org/2000/svg" viewBox="0 0 400 250">
  <style>.s{font-family:-apple-system,'Segoe UI',Roboto,'Helvetica Neue',Arial,sans-serif}</style>
  <rect width="400" height="250" rx="10" fill="#ffffff"/>
  <rect x="40" y="24" width="320" height="202" rx="8" fill="#ffffff" stroke="#d9d9d9" stroke-width="1.5"/>
  <text x="58" y="50" class="s" font-size="14" font-weight="600" fill="#262626">Select Node</text>
  <g stroke="#8c959f" stroke-width="1.6" stroke-linecap="round">
    <line x1="336" y1="38" x2="348" y2="50"/><line x1="348" y1="38" x2="336" y2="50"/>
  </g>
  <line x1="40" y1="64" x2="360" y2="64" stroke="#f0f0f0" stroke-width="1.5"/>
  <!-- tree -->
  <path d="M64,86 l9,6 l-9,6 z" fill="#595959"/>
  <text x="86" y="97" class="s" font-size="13" fill="#262626">Head Office</text>
  <line x1="69" y1="104" x2="69" y2="184" stroke="#f0f0f0" stroke-width="1.5"/>
  <line x1="69" y1="122" x2="86" y2="122" stroke="#f0f0f0" stroke-width="1.5"/>
  <rect x="92" y="108" width="120" height="28" rx="4" fill="#eef0fa"/>
  <text x="102" y="127" class="s" font-size="13" fill="#4b5cc4" font-weight="600">R&amp;D Center</text>
  <line x1="69" y1="152" x2="86" y2="152" stroke="#f0f0f0" stroke-width="1.5"/>
  <text x="102" y="157" class="s" font-size="13" fill="#595959">Marketing</text>
  <line x1="69" y1="184" x2="86" y2="184" stroke="#f0f0f0" stroke-width="1.5"/>
  <path d="M96,178 l9,6 l-9,6 z" fill="#8c959f"/>
  <text x="116" y="189" class="s" font-size="13" fill="#595959">Branch Office</text>
</svg>
